<svg width="24" height="25" viewBox="0 0 24 25" fill="none" xmlns="http://www.w3.org/2000/svg">
<mask id="mask0_4963_51122" style="mask-type:alpha" maskUnits="userSpaceOnUse" x="0" y="0" width="24" height="25">
<rect y="0.483398" width="24" height="24" fill="#D9D9D9"/>
</mask>
<g mask="url(#mask0_4963_51122)">
<path d="M12 12.4834C10.9 12.4834 9.95833 12.0917 9.175 11.3084C8.39167 10.5251 8 9.5834 8 8.4834C8 7.3834 8.39167 6.44173 9.175 5.6584C9.95833 4.87507 10.9 4.4834 12 4.4834C13.1 4.4834 14.0417 4.87507 14.825 5.6584C15.6083 6.44173 16 7.3834 16 8.4834C16 9.5834 15.6083 10.5251 14.825 11.3084C14.0417 12.0917 13.1 12.4834 12 12.4834ZM4 20.4834V17.6834C4 17.1167 4.14583 16.5959 4.4375 16.1209C4.72917 15.6459 5.11667 15.2834 5.6 15.0334C6.63333 14.5167 7.68333 14.1292 8.75 13.8709C9.81667 13.6126 10.9 13.4834 12 13.4834C13.1 13.4834 14.1833 13.6126 15.25 13.8709C16.3167 14.1292 17.3667 14.5167 18.4 15.0334C18.8833 15.2834 19.2708 15.6459 19.5625 16.1209C19.8542 16.5959 20 17.1167 20 17.6834V20.4834H4ZM6 18.4834H18V17.6834C18 17.5001 17.9542 17.3334 17.8625 17.1834C17.7708 17.0334 17.65 16.9167 17.5 16.8334C16.6 16.3834 15.6917 16.0459 14.775 15.8209C13.8583 15.5959 12.9333 15.4834 12 15.4834C11.0667 15.4834 10.1417 15.5959 9.225 15.8209C8.30833 16.0459 7.4 16.3834 6.5 16.8334C6.35 16.9167 6.22917 17.0334 6.1375 17.1834C6.04583 17.3334 6 17.5001 6 17.6834V18.4834ZM12 10.4834C12.55 10.4834 13.0208 10.2876 13.4125 9.8959C13.8042 9.50423 14 9.0334 14 8.4834C14 7.9334 13.8042 7.46257 13.4125 7.0709C13.0208 6.67923 12.55 6.4834 12 6.4834C11.45 6.4834 10.9792 6.67923 10.5875 7.0709C10.1958 7.46257 10 7.9334 10 8.4834C10 9.0334 10.1958 9.50423 10.5875 9.8959C10.9792 10.2876 11.45 10.4834 12 10.4834Z" fill="#1C1B1F"/>
</g>
</svg>
